<?xml version="1.0" encoding="utf-8"?>
<!-- Generator: Adobe Illustrator 19.1.0, SVG Export Plug-In . SVG Version: 6.00 Build 0)  -->
<svg version="1.1" id="Layer_1" xmlns="http://www.w3.org/2000/svg" xmlns:xlink="http://www.w3.org/1999/xlink" x="0px" y="0px"
	 viewBox="0 0 612 792" style="enable-background:new 0 0 612 792;" xml:space="preserve">
<style type="text/css">
	.st0{fill:none;stroke:#000000;stroke-width:3;stroke-miterlimit:10;}
	.st1{fill:none;}
	.st2{font-family:'MyriadPro-Regular';}
	.st3{font-size:18px;}
	.st4{fill:none;stroke:#2E3192;stroke-width:3;stroke-miterlimit:10;}
	.st5{fill:none;stroke:#BE1E2D;stroke-width:3;stroke-miterlimit:10;}
</style>
<path class="st0" d="M503.3,227.5"/>
<rect x="205.2" y="918.3" class="st1" width="41.1" height="32.9"/>
<text transform="matrix(1 0 0 1 205.2136 931.0558)" class="st2 st3">C</text>
<rect x="266.2" y="323.6" class="st1" width="75.8" height="49.3"/>
<text transform="matrix(1 0 0 1 266.2466 336.4241)" class="st2 st3">Figure B</text>
<line class="st4" x1="-220.3" y1="-32.5" x2="-221.7" y2="-31.2"/>
<line class="st5" x1="252.1" y1="214.5" x2="356.3" y2="214.5"/>
<line class="st5" x1="248.4" y1="214.5" x2="331.3" y2="185.2"/>
<line class="st4" x1="82.3" y1="412.7" x2="398.1" y2="414.1"/>
<line class="st4" x1="398.1" y1="414.1" x2="337.8" y2="362"/>
<line class="st4" x1="337.8" y1="362" x2="82.3" y2="412.7"/>
<line class="st5" x1="331.3" y1="185.2" x2="356.3" y2="214.5"/>
<rect x="275.2" y="151" class="st1" width="112.3" height="34.2"/>
<text transform="matrix(1 0 0 1 275.1812 163.7448)" class="st2 st3">Figure A</text>
<rect x="345.3" y="185.2" class="st1" width="45.2" height="38.4"/>
<text transform="matrix(1 0 0 1 345.3134 197.9911)" class="st2 st3">2</text>
<rect x="372.7" y="373.6" class="st1" width="50.7" height="28.8"/>
<text transform="matrix(1 0 0 1 372.7105 386.4236)" class="st2 st3">4</text>
</svg>
