<?xml version="1.0" encoding="utf-8"?>
<!-- Generator: Adobe Illustrator 16.0.0, SVG Export Plug-In . SVG Version: 6.00 Build 0)  -->
<!DOCTYPE svg PUBLIC "-//W3C//DTD SVG 1.1//EN" "http://www.w3.org/Graphics/SVG/1.1/DTD/svg11.dtd">
<svg version="1.1" id="Layer_1" xmlns="http://www.w3.org/2000/svg" xmlns:xlink="http://www.w3.org/1999/xlink" x="0px" y="0px"
	 width="367.242px" height="312.195px" viewBox="56.159 130.524 367.242 312.195"
	 enable-background="new 56.159 130.524 367.242 312.195" xml:space="preserve">
<path fill="none" stroke="#000000" stroke-width="3" stroke-miterlimit="10" d="M503.3,227.5"/>
<rect x="205.2" y="918.3" fill="none" width="41.1" height="32.9"/>
<text transform="matrix(1 0 0 1 205.2134 931.0557)" font-family="'MyriadPro-Regular'" font-size="18">C</text>
<rect x="266.2" y="323.6" fill="none" width="75.8" height="49.3"/>
<text transform="matrix(1 0 0 1 266.2466 336.4238)" font-family="'MyriadPro-Regular'" font-size="18">Figure B</text>
<line fill="none" stroke="#2E3192" stroke-width="3" stroke-miterlimit="10" x1="-220.3" y1="-32.5" x2="-221.7" y2="-31.2"/>
<line fill="none" stroke="#BE1E2D" stroke-width="3" stroke-miterlimit="10" x1="252.1" y1="214.5" x2="356.3" y2="214.5"/>
<line fill="none" stroke="#BE1E2D" stroke-width="3" stroke-miterlimit="10" x1="248.4" y1="214.5" x2="331.3" y2="185.2"/>
<line fill="none" stroke="#2E3192" stroke-width="3" stroke-miterlimit="10" x1="82.3" y1="412.7" x2="398.1" y2="414.1"/>
<line fill="none" stroke="#2E3192" stroke-width="3" stroke-miterlimit="10" x1="398.1" y1="414.1" x2="337.8" y2="362"/>
<line fill="none" stroke="#2E3192" stroke-width="3" stroke-miterlimit="10" x1="337.8" y1="362" x2="82.3" y2="412.7"/>
<line fill="none" stroke="#BE1E2D" stroke-width="3" stroke-miterlimit="10" x1="331.3" y1="185.2" x2="356.3" y2="214.5"/>
<rect x="275.2" y="151" fill="none" width="112.3" height="34.2"/>
<text transform="matrix(1 0 0 1 275.1812 163.7451)" font-family="'MyriadPro-Regular'" font-size="18">Figure A</text>
<rect x="345.3" y="185.2" fill="none" width="45.2" height="38.4"/>
<text transform="matrix(1 0 0 1 345.3135 197.9912)" font-family="'MyriadPro-Regular'" font-size="18">2</text>
<rect x="372.7" y="373.6" fill="none" width="50.7" height="28.8"/>
<text transform="matrix(1 0 0 1 372.7109 386.4238)" font-family="'MyriadPro-Regular'" font-size="18">4</text>
</svg>
