<?xml version="1.0" encoding="utf-8"?>
<!-- Generator: Adobe Illustrator 19.1.0, SVG Export Plug-In . SVG Version: 6.00 Build 0)  -->
<svg version="1.1" id="Layer_1" xmlns="http://www.w3.org/2000/svg" xmlns:xlink="http://www.w3.org/1999/xlink" x="0px" y="0px"
	 viewBox="0 0 612 792" style="enable-background:new 0 0 612 792;" xml:space="preserve">
<style type="text/css">
	.st0{fill:none;stroke:#000000;stroke-miterlimit:10;}
	.st1{fill:none;stroke:#000000;stroke-width:3;stroke-miterlimit:10;}
	.st2{fill:none;}
	.st3{font-family:'MyriadPro-Regular';}
	.st4{font-size:18px;}
	.st5{fill:none;stroke:#2E3192;stroke-width:3;stroke-miterlimit:10;}
	.st6{fill:none;stroke:#BE1E2D;stroke-width:3;stroke-miterlimit:10;}
</style>
<g>
	<rect x="24.2" y="89.4" class="st0" width="558.9" height="483.6"/>
	<line class="st0" x1="24.2" y1="538.4" x2="583.1" y2="538.4"/>
	<line class="st0" x1="24.2" y1="503.9" x2="583.1" y2="503.9"/>
	<line class="st0" x1="24.2" y1="469.3" x2="583.1" y2="469.3"/>
	<line class="st0" x1="24.2" y1="434.8" x2="583.1" y2="434.8"/>
	<line class="st0" x1="24.2" y1="400.2" x2="583.1" y2="400.2"/>
	<line class="st0" x1="24.2" y1="365.7" x2="583.1" y2="365.7"/>
	<line class="st0" x1="24.2" y1="331.2" x2="583.1" y2="331.2"/>
	<line class="st0" x1="24.2" y1="296.6" x2="583.1" y2="296.6"/>
	<line class="st0" x1="24.2" y1="262.1" x2="583.1" y2="262.1"/>
	<line class="st0" x1="24.2" y1="227.5" x2="583.1" y2="227.5"/>
	<line class="st0" x1="24.2" y1="193" x2="583.1" y2="193"/>
	<line class="st0" x1="24.2" y1="158.5" x2="583.1" y2="158.5"/>
	<line class="st0" x1="24.2" y1="123.9" x2="583.1" y2="123.9"/>
	<line class="st0" x1="543.2" y1="89.4" x2="543.2" y2="572.9"/>
	<line class="st0" x1="503.3" y1="89.4" x2="503.3" y2="572.9"/>
	<line class="st0" x1="463.4" y1="89.4" x2="463.4" y2="572.9"/>
	<line class="st0" x1="423.4" y1="89.4" x2="423.4" y2="572.9"/>
	<line class="st0" x1="383.5" y1="89.4" x2="383.5" y2="572.9"/>
	<line class="st0" x1="343.6" y1="89.4" x2="343.6" y2="572.9"/>
	<line class="st0" x1="303.7" y1="89.4" x2="303.7" y2="572.9"/>
	<line class="st0" x1="263.7" y1="89.4" x2="263.7" y2="572.9"/>
	<line class="st0" x1="223.8" y1="89.4" x2="223.8" y2="572.9"/>
	<line class="st0" x1="183.9" y1="89.4" x2="183.9" y2="572.9"/>
	<line class="st0" x1="144" y1="89.4" x2="144" y2="572.9"/>
	<line class="st0" x1="104.1" y1="89.4" x2="104.1" y2="572.9"/>
	<line class="st0" x1="64.1" y1="89.4" x2="64.1" y2="572.9"/>
</g>
<line class="st1" x1="303.7" y1="89.4" x2="303.7" y2="572.9"/>
<path id="SVGID_x5F_1_x5F_" class="st2" d="M24.2,331.2h558.9"/>
<text><textPath  xlink:href="#SVGID_x5F_1_x5F_" startOffset="16.357%">
</textPath>
</text>
<rect x="93.4" y="336.9" class="st2" width="42.5" height="34.2"/>
<text transform="matrix(1 0 0 1 93.3972 349.7174)" class="st3 st4">-5</text>
<rect x="57.5" y="336.9" class="st2" width="46.6" height="28.8"/>
<text transform="matrix(1 0 0 1 57.4874 349.7174)" class="st3 st4">-6</text>
<rect x="129.7" y="336.9" class="st2" width="54.8" height="34.2"/>
<text transform="matrix(1 0 0 1 129.6984 349.7172)" class="st3 st4">-4</text>
<rect x="179" y="334.9" class="st2" width="58.9" height="38.4"/>
<text transform="matrix(1 0 0 1 179.0139 347.6628)" class="st3 st4">-3</text>
<rect x="216.7" y="334.9" class="st2" width="42.5" height="32.9"/>
<text transform="matrix(1 0 0 1 216.6847 347.6627)" class="st3 st4">-2</text>
<rect x="259.2" y="335.6" class="st2" width="37" height="31.5"/>
<text transform="matrix(1 0 0 1 259.1509 348.348)" class="st3 st4">-1</text>
<rect x="296.1" y="337.6" class="st2" width="41.1" height="27.4"/>
<text transform="matrix(1 0 0 1 296.1374 350.4025)" class="st3 st4">0</text>
<rect x="379" y="332.5" class="st2" width="43.8" height="24.7"/>
<text transform="matrix(1 0 0 1 379.0141 345.3141)" class="st3 st4">2</text>
<rect x="343.6" y="334.9" class="st2" width="46.6" height="32.9"/>
<text transform="matrix(1 0 0 1 343.593 347.6628)" class="st3 st4">1</text>
<rect x="420.8" y="335.6" class="st2" width="53.4" height="31.5"/>
<text transform="matrix(1 0 0 1 420.7945 348.3475)" class="st3 st4">3</text>
<rect x="456.4" y="335.6" class="st2" width="35.6" height="37"/>
<text transform="matrix(1 0 0 1 456.4111 348.3481)" class="st3 st4">4</text>
<rect x="503.3" y="333.5" class="st2" width="39.7" height="41.1"/>
<text transform="matrix(1 0 0 1 503.28 346.2929)" class="st3 st4">5</text>
<rect x="536.5" y="333.9" class="st2" width="38.4" height="21.9"/>
<text transform="matrix(1 0 0 1 536.5481 346.6845)" class="st3 st4">6</text>
<rect x="310.7" y="288.7" class="st2" width="46.6" height="32.9"/>
<text transform="matrix(1 0 0 1 310.7046 301.4789)" class="st3 st4">1</text>
<rect x="310.7" y="356.8" class="st2" width="37" height="31.5"/>
<text transform="matrix(1 0 0 1 310.7047 369.5809)" class="st3 st4">-1</text>
<rect x="308" y="388.3" class="st2" width="42.5" height="32.9"/>
<text transform="matrix(1 0 0 1 307.9646 401.0873)" class="st3 st4">-2</text>
<rect x="307.3" y="255.8" class="st2" width="43.8" height="24.7"/>
<text transform="matrix(1 0 0 1 307.2803 268.6017)" class="st3 st4">2</text>
<rect x="307.3" y="218.2" class="st2" width="53.4" height="31.5"/>
<text transform="matrix(1 0 0 1 307.2798 230.9307)" class="st3 st4">3</text>
<rect x="307.8" y="431" class="st2" width="58.9" height="38.4"/>
<text transform="matrix(1 0 0 1 307.781 443.7488)" class="st3 st4">-3</text>
<rect x="306.6" y="459.2" class="st2" width="54.8" height="34.2"/>
<text transform="matrix(1 0 0 1 306.5947 472.0264)" class="st3 st4">-4</text>
<rect x="306.6" y="181.2" class="st2" width="35.6" height="37"/>
<text transform="matrix(1 0 0 1 306.5951 193.9449)" class="st3 st4">4</text>
<rect x="309.3" y="151.9" class="st2" width="39.7" height="41.1"/>
<text transform="matrix(1 0 0 1 309.3348 164.6882)" class="st3 st4">5</text>
<rect x="310" y="113" class="st2" width="38.4" height="21.9"/>
<text transform="matrix(1 0 0 1 310.0197 125.7452)" class="st3 st4">6</text>
<rect x="308" y="493.5" class="st2" width="42.5" height="34.2"/>
<text transform="matrix(1 0 0 1 307.9648 506.2732)" class="st3 st4">-5</text>
<rect x="305.9" y="527.7" class="st2" width="46.6" height="28.8"/>
<text transform="matrix(1 0 0 1 305.9101 540.5198)" class="st3 st4">-6</text>
<line class="st1" x1="24.2" y1="331.2" x2="583.1" y2="331.2"/>
<path class="st1" d="M503.3,227.5"/>
<path class="st1" d="M347.7,227.5"/>
<rect x="205.2" y="918.3" class="st2" width="41.1" height="32.9"/>
<text transform="matrix(1 0 0 1 205.2136 931.0558)" class="st3 st4">C</text>
<line class="st5" x1="383.5" y1="400.2" x2="301" y2="470.2"/>
<line class="st5" x1="301" y1="470.2" x2="543" y2="470.2"/>
<line class="st5" x1="383.5" y1="400.2" x2="543" y2="470.2"/>
<rect x="221.2" y="168.3" class="st2" width="75.8" height="49.3"/>
<text transform="matrix(1 0 0 1 221.229 181.1266)" class="st3 st4">Figure A</text>
<rect x="352.2" y="375.6" class="st2" width="75.8" height="49.3"/>
<text transform="matrix(1 0 0 1 352.2466 388.3673)" class="st3 st4">Figure B</text>
<line class="st6" x1="183.9" y1="262.1" x2="423.4" y2="262.1"/>
<line class="st6" x1="263.7" y1="193" x2="184.5" y2="262.1"/>
<line class="st6" x1="263.7" y1="193" x2="423.4" y2="262.1"/>
</svg>
