<?xml version="1.0" encoding="utf-8"?>
<!-- Generator: Adobe Illustrator 19.1.0, SVG Export Plug-In . SVG Version: 6.00 Build 0)  -->
<svg version="1.1" id="Layer_1" xmlns="http://www.w3.org/2000/svg" xmlns:xlink="http://www.w3.org/1999/xlink" x="0px" y="0px"
	 viewBox="0 0 612 792" style="enable-background:new 0 0 612 792;" xml:space="preserve">
<style type="text/css">
	.st0{fill:none;stroke:#000000;stroke-miterlimit:10;}
	.st1{fill:none;stroke:#000000;stroke-width:3;stroke-miterlimit:10;}
	.st2{stroke:#000000;stroke-width:3;stroke-miterlimit:10;}
	.st3{fill:none;}
	.st4{font-family:'MyriadPro-Regular';}
	.st5{font-size:18px;}
</style>
<g>
	<rect x="40.5" y="93.2" class="st0" width="510.6" height="371.3"/>
	<line class="st0" x1="40.5" y1="442.6" x2="551.1" y2="442.6"/>
	<line class="st0" x1="40.5" y1="420.8" x2="551.1" y2="420.8"/>
	<line class="st0" x1="40.5" y1="399" x2="551.1" y2="399"/>
	<line class="st0" x1="40.5" y1="377.1" x2="551.1" y2="377.1"/>
	<line class="st0" x1="40.5" y1="355.3" x2="551.1" y2="355.3"/>
	<line class="st0" x1="40.5" y1="333.4" x2="551.1" y2="333.4"/>
	<line class="st0" x1="40.5" y1="311.6" x2="551.1" y2="311.6"/>
	<line class="st0" x1="40.5" y1="289.8" x2="551.1" y2="289.8"/>
	<line class="st0" x1="40.5" y1="267.9" x2="551.1" y2="267.9"/>
	<line class="st0" x1="40.5" y1="246.1" x2="551.1" y2="246.1"/>
	<line class="st0" x1="40.5" y1="224.2" x2="551.1" y2="224.2"/>
	<line class="st0" x1="40.5" y1="202.4" x2="551.1" y2="202.4"/>
	<line class="st0" x1="40.5" y1="180.5" x2="551.1" y2="180.5"/>
	<line class="st0" x1="40.5" y1="158.7" x2="551.1" y2="158.7"/>
	<line class="st0" x1="40.5" y1="136.9" x2="551.1" y2="136.9"/>
	<line class="st0" x1="40.5" y1="115" x2="551.1" y2="115"/>
	<line class="st0" x1="532.2" y1="93.2" x2="532.2" y2="464.5"/>
	<line class="st0" x1="513.3" y1="93.2" x2="513.3" y2="464.5"/>
	<line class="st0" x1="494.3" y1="93.2" x2="494.3" y2="464.5"/>
	<line class="st0" x1="475.4" y1="93.2" x2="475.4" y2="464.5"/>
	<line class="st0" x1="456.5" y1="93.2" x2="456.5" y2="464.5"/>
	<line class="st0" x1="437.6" y1="93.2" x2="437.6" y2="464.5"/>
	<line class="st0" x1="418.7" y1="93.2" x2="418.7" y2="464.5"/>
	<line class="st0" x1="399.8" y1="93.2" x2="399.8" y2="464.5"/>
	<line class="st0" x1="380.9" y1="93.2" x2="380.9" y2="464.5"/>
	<line class="st0" x1="362" y1="93.2" x2="362" y2="464.5"/>
	<line class="st0" x1="343.1" y1="93.2" x2="343.1" y2="464.5"/>
	<line class="st0" x1="324.2" y1="93.2" x2="324.2" y2="464.5"/>
	<line class="st0" x1="305.3" y1="93.2" x2="305.3" y2="464.5"/>
	<line class="st0" x1="286.3" y1="93.2" x2="286.3" y2="464.5"/>
	<line class="st0" x1="267.4" y1="93.2" x2="267.4" y2="464.5"/>
	<line class="st0" x1="248.5" y1="93.2" x2="248.5" y2="464.5"/>
	<line class="st0" x1="229.6" y1="93.2" x2="229.6" y2="464.5"/>
	<line class="st0" x1="210.7" y1="93.2" x2="210.7" y2="464.5"/>
	<line class="st0" x1="191.8" y1="93.2" x2="191.8" y2="464.5"/>
	<line class="st0" x1="172.9" y1="93.2" x2="172.9" y2="464.5"/>
	<line class="st0" x1="154" y1="93.2" x2="154" y2="464.5"/>
	<line class="st0" x1="135.1" y1="93.2" x2="135.1" y2="464.5"/>
	<line class="st0" x1="116.2" y1="93.2" x2="116.2" y2="464.5"/>
	<line class="st0" x1="97.3" y1="93.2" x2="97.3" y2="464.5"/>
	<line class="st0" x1="78.3" y1="93.2" x2="78.3" y2="464.5"/>
	<line class="st0" x1="59.4" y1="93.2" x2="59.4" y2="464.5"/>
</g>
<line class="st1" x1="40.5" y1="333.4" x2="551.1" y2="333.4"/>
<line class="st1" x1="135.1" y1="464.5" x2="135.1" y2="93.2"/>
<ellipse class="st2" cx="267.4" cy="224.2" rx="5.7" ry="6.2"/>
<ellipse class="st2" cx="191.8" cy="289.8" rx="5.7" ry="6.2"/>
<rect x="261.7" y="193.4" class="st3" width="49.3" height="24.7"/>
<text transform="matrix(1 0 0 1 261.6877 206.188)" class="st4 st5">(7,5)</text>
<rect x="160.7" y="295.9" class="st3" width="50.7" height="35.6"/>
<text transform="matrix(1 0 0 1 160.7481 308.7002)" class="st4 st5">(3,2)</text>
<rect x="128.3" y="339.5" class="st3" width="35.6" height="31.5"/>
<text transform="matrix(1 0 0 1 128.3289 352.309)" class="st4 st5">0</text>
<rect x="122.8" y="323.9" class="st3" width="35.6" height="31.5"/>
<text transform="matrix(1 0 0 1 122.8496 336.6314)" class="st4 st5">0</text>
<text transform="matrix(1 0 0 1 122.8495 230.3943)" class="st4 st5">5</text>
<text transform="matrix(1 0 0 1 116.1607 120.5751)" class="st4 st5">10</text>
<rect x="114.5" y="435.6" class="st3" width="41.1" height="35.6"/>
<text transform="matrix(1 0 0 1 114.5223 448.4245)" class="st4 st5">-5</text>
<rect x="223.9" y="339" class="st3" width="35.6" height="24.7"/>
<text transform="matrix(1 0 0 1 223.9095 351.7336)" class="st4 st5">5</text>
<rect x="314.1" y="339.6" class="st3" width="31.5" height="31.5"/>
<text transform="matrix(1 0 0 1 314.1177 352.3845)" class="st4 st5">10</text>
</svg>
